# Blender v2.77 (sub 0) OBJ File: 'bush(1).blend'
# www.blender.org
mtllib skinny_bush.mtl
v -1.863981 2.689334 1.715433
v -0.975184 -1.121807 0.950612
v -1.863946 3.473901 -2.194065
v -0.975149 -0.337241 -2.958884
v 0.376010 3.460000 1.017590
v 0.943189 -0.744596 -0.484288
v -3.834397 3.460020 -0.572512
v -3.267218 -0.744576 -2.074391
v 1.284188 2.934400 -0.013824
v 0.587221 -0.926658 0.697636
v -1.564284 2.934422 -2.804150
v -2.261251 -0.926636 -2.092690
v -3.269345 3.480080 -1.252314
v -2.746497 -0.968534 -0.813661
v 1.183607 3.959652 -1.696369
v 1.706454 -0.488963 -1.257717
vt 0.0000 0.0000
vt 1.0000 1.0000
vt 0.0000 1.0000
vt 1.0000 0.0000
vt 0.0000 0.0000
vt 1.0000 1.0000
vt 0.0000 1.0000
vt 0.0000 0.0000
vt 1.0000 1.0000
vt 0.0000 1.0000
vt 1.0000 0.0000
vt 1.0000 0.0000
vt 0.0000 0.9806
vt 1.0000 0.0000
vt 1.0000 0.9806
vt 0.0000 0.0000
vn 0.9748 0.2185 0.0439
vn 0.3301 0.3567 -0.8740
vn 0.0871 0.1079 0.9903
vn 0.6776 -0.2498 -0.6917
usemtl brench
s off
f 2/1/1 3/2/1 1/3/1
f 2/1/1 4/4/1 3/2/1
usemtl brench2
f 6/5/2 7/6/2 5/7/2
f 14/8/3 15/9/3 13/10/3
f 6/5/2 8/11/2 7/6/2
f 14/8/3 16/12/3 15/9/3
usemtl brench3
f 9/13/4 12/14/4 11/15/4
f 9/13/4 10/16/4 12/14/4
